<svg width="193" height="121" viewBox="0 0 193 121" fill="none" xmlns="http://www.w3.org/2000/svg">
<path d="M30.0942 66.0811C30.0942 68.5531 29.6509 70.6624 28.7641 72.4089C27.8774 74.1554 26.7892 75.4855 25.4995 76.399H25.6607C27.246 76.399 28.6835 76.0497 29.9733 75.3511C31.2899 74.6256 32.4722 73.7121 33.5201 72.6104C34.568 71.4819 35.5084 70.2324 36.3414 68.8621C37.1744 67.4917 37.9133 66.1617 38.5582 64.8719C38.6925 64.5764 38.8806 64.348 39.1224 64.1868C39.3911 64.0255 39.6733 63.9449 39.9688 63.9449C40.4256 63.9449 40.7883 64.1061 41.057 64.4286C41.3257 64.751 41.4601 65.1003 41.4601 65.4765C41.4601 65.6915 41.4198 65.893 41.3392 66.0811C40.6406 67.6395 39.8076 69.2114 38.8403 70.7967C37.873 72.3552 36.7445 73.7658 35.4547 75.0287C34.165 76.2916 32.714 77.3126 31.1018 78.0918C29.4896 78.8979 27.7028 79.301 25.7413 79.301C24.3172 79.301 22.9334 79.0726 21.5899 78.6158C20.2464 78.1859 19.0642 77.5007 18.0431 76.5603C17.667 76.2647 17.3445 75.9557 17.0758 75.6333C16.8071 75.284 16.5922 74.9615 16.4309 74.6659C16.3772 74.6122 16.3503 74.5585 16.3503 74.5047C16.1891 74.2629 16.1085 74.0076 16.1085 73.7389C16.1085 73.3896 16.2294 73.0672 16.4713 72.7716C16.4981 72.7179 16.525 72.691 16.5519 72.691C16.5787 72.6642 16.6056 72.6373 16.6325 72.6104C16.9012 72.3686 17.1967 72.2342 17.5192 72.2074H17.6401C17.7744 72.2074 17.8685 72.2208 17.9222 72.2477C17.9491 72.2477 17.9625 72.2611 17.9625 72.288C17.9894 72.288 18.0163 72.288 18.0431 72.288C18.1237 72.288 18.2178 72.3148 18.3253 72.3686C18.3521 72.3955 18.379 72.4089 18.4059 72.4089C18.6477 72.5701 18.8492 72.7716 19.0104 73.0135C19.1985 73.3359 19.4135 73.6315 19.6553 73.9002C19.8703 74.1151 20.1255 74.3166 20.4211 74.5047C20.7167 74.6659 21.0525 74.7466 21.4287 74.7466C22.1005 74.7466 22.7722 74.545 23.4439 74.142C24.1157 73.7389 24.7203 73.1612 25.2577 72.4089C25.795 71.6565 26.225 70.743 26.5474 69.6682C26.8967 68.5934 27.0714 67.3977 27.0714 66.0811C27.0714 65.1138 26.9639 64.2942 26.7489 63.6225C26.5608 62.9239 26.3056 62.3596 25.9831 61.9297C25.6876 61.4998 25.3651 61.1908 25.0158 61.0027C24.6665 60.7877 24.3306 60.6803 24.0082 60.6803C23.2827 60.6803 22.5438 61.0564 21.7915 61.8088C21.066 62.5611 20.3405 63.515 19.615 64.6704C18.8895 65.8258 18.164 67.1021 17.4386 68.4993C16.7399 69.8966 16.0279 71.2535 15.3024 72.5701C15.2487 76.923 15.1681 81.0744 15.0606 85.0242C14.98 88.9741 14.8188 92.6418 14.5769 96.0274C14.362 99.413 14.053 102.476 13.6499 105.217C13.2469 107.958 12.6961 110.295 11.9974 112.23C11.2988 114.191 10.439 115.696 9.41795 116.744C8.3969 117.792 7.14746 118.316 5.66962 118.316C5.21284 118.316 4.68888 118.222 4.09774 118.034C3.50661 117.846 2.95578 117.456 2.44526 116.865C1.93473 116.301 1.50482 115.481 1.15551 114.406C0.806204 113.331 0.631551 111.894 0.631551 110.094C0.631551 107.81 0.913683 105.163 1.47795 102.154C2.04221 99.1443 2.8483 95.9468 3.89622 92.5612C4.91727 89.2025 6.13984 85.7497 7.56394 82.2029C8.98803 78.6561 10.5599 75.2033 12.2796 71.8446C12.2796 70.9042 12.2796 69.9772 12.2796 69.0636C12.3064 68.15 12.3199 67.2633 12.3199 66.4035C11.9706 66.8066 11.5541 67.0081 11.0704 67.0081C10.6137 67.0081 10.2509 66.8469 9.98221 66.5244C9.71352 66.202 9.57917 65.8527 9.57917 65.4765C9.57917 65.2884 9.61947 65.0869 9.70008 64.8719C10.345 63.3941 10.842 61.9969 11.1914 60.6803C11.5407 59.3368 11.7959 58.1679 11.9571 57.1738C12.1452 56.1527 12.2527 55.3466 12.2796 54.7555C12.3064 54.1643 12.3199 53.8553 12.3199 53.8285C12.3199 53.4254 12.4677 53.0761 12.7632 52.7806C13.0588 52.485 13.4215 52.3372 13.8515 52.3372C14.2545 52.3372 14.6038 52.485 14.8994 52.7806C15.1949 53.0493 15.3427 53.3986 15.3427 53.8285V66.202C15.9607 65.1541 16.5787 64.1196 17.1967 63.0985C17.8147 62.0775 18.4596 61.1639 19.1314 60.3578C19.83 59.5517 20.5689 58.9069 21.3481 58.4232C22.1542 57.9127 23.0409 57.6574 24.0082 57.6574C24.9218 57.6574 25.7547 57.8724 26.5071 58.3023C27.2594 58.7322 27.9043 59.3233 28.4417 60.0757C28.9791 60.828 29.3822 61.7282 29.6509 62.7761C29.9464 63.7971 30.0942 64.8988 30.0942 66.0811ZM12.199 79.0188C10.8823 81.9745 9.68665 84.9436 8.61186 87.9262C7.56394 90.9087 6.67724 93.7838 5.95176 96.5513C5.1994 99.3189 4.6217 101.912 4.21866 104.33C3.81561 106.748 3.61409 108.871 3.61409 110.698C3.61409 111.155 3.64096 111.652 3.6947 112.19C3.74844 112.727 3.85592 113.224 4.01714 113.681C4.17835 114.138 4.40675 114.514 4.70231 114.809C4.99788 115.132 5.38749 115.293 5.87115 115.293C6.75785 115.293 7.52363 114.729 8.16851 113.6C8.81338 112.499 9.35078 110.994 9.78069 109.086C10.2375 107.205 10.6137 105.029 10.9092 102.557C11.2048 100.112 11.4332 97.5455 11.5944 94.8585C11.7825 92.1716 11.9168 89.4577 11.9974 86.717C12.0781 84.0032 12.1452 81.4371 12.199 79.0188ZM51.9796 72.8119C51.0391 74.3435 49.9375 75.5526 48.6746 76.4393C47.4386 77.326 46.1892 77.7694 44.9263 77.7694C43.9052 77.7694 42.9917 77.5813 42.1856 77.2051C41.3795 76.829 40.6809 76.305 40.0897 75.6333C39.4986 74.9346 39.0418 74.1017 38.7194 73.1344C38.4238 72.1671 38.276 71.0788 38.276 69.8697C38.276 67.9888 38.4507 66.3229 38.8 64.8719C39.1762 63.421 39.5792 62.2118 40.0091 61.2445C40.439 60.2503 40.8421 59.498 41.2183 58.9875C41.5944 58.4769 41.7825 58.2217 41.7825 58.2217C41.9169 58.0605 42.0781 57.9395 42.2662 57.8589C42.4811 57.7783 42.6961 57.738 42.9111 57.738C43.341 57.738 43.6903 57.8992 43.959 58.2217C44.2545 58.5172 44.4023 58.8666 44.4023 59.2696C44.4023 59.4308 44.362 59.592 44.2814 59.7533C44.2277 59.9145 44.1605 60.0757 44.0799 60.2369C43.9455 60.4787 43.7306 60.8549 43.435 61.3654C43.1394 61.8491 42.8304 62.494 42.508 63.3001C42.1856 64.1061 41.9034 65.06 41.6616 66.1617C41.4198 67.2365 41.2989 68.4725 41.2989 69.8697C41.2989 71.455 41.6079 72.6642 42.2259 73.4971C42.8708 74.3032 43.7709 74.7063 44.9263 74.7063C45.4099 74.7063 45.9608 74.5585 46.5788 74.2629C47.2236 73.9405 47.8417 73.4568 48.4328 72.8119C49.0508 72.1671 49.5882 71.3475 50.045 70.3534C50.5018 69.3592 50.7973 68.1903 50.9317 66.8469L51.5362 59.9145C51.59 59.5114 51.7646 59.1756 52.0602 58.9069C52.3558 58.6382 52.7051 58.5038 53.1081 58.5038C53.5649 58.5038 53.9276 58.6785 54.1963 59.0278C54.465 59.3502 54.5994 59.7264 54.5994 60.1563L54.0754 66.8469C54.0217 67.4111 54.0351 68.15 54.1157 69.0636C54.2232 69.9772 54.4247 70.8773 54.7203 71.764C55.0159 72.6507 55.4592 73.4165 56.0504 74.0614C56.6415 74.6794 57.4207 74.9884 58.388 74.9884C59.0866 74.9884 59.7718 74.8137 60.4436 74.4644C61.1153 74.0882 61.7602 73.6046 62.3782 73.0135C62.9962 72.4223 63.5604 71.764 64.071 71.0385C64.6084 70.2862 65.092 69.5338 65.5219 68.7815C65.9787 68.0291 66.3683 67.3171 66.6908 66.6453C67.0132 65.9467 67.2819 65.3556 67.4969 64.8719C67.6312 64.5764 67.8193 64.348 68.0611 64.1868C68.3029 64.0255 68.5716 63.9449 68.8672 63.9449C69.3509 63.9449 69.727 64.1061 69.9957 64.4286C70.2644 64.751 70.3988 65.1003 70.3988 65.4765C70.3988 65.6915 70.3585 65.893 70.2779 66.0811C70.1704 66.296 69.9554 66.7528 69.633 67.4514C69.3374 68.1232 68.9344 68.9024 68.4239 69.7891C67.9402 70.6489 67.3491 71.5625 66.6505 72.5298C65.9518 73.4971 65.1726 74.3973 64.3128 75.2302C63.453 76.0363 62.5125 76.708 61.4915 77.2454C60.4973 77.756 59.4225 78.0112 58.2671 78.0112C56.6818 78.0112 55.3652 77.5679 54.3173 76.6812C53.2693 75.7676 52.4901 74.4779 51.9796 72.8119ZM70.6809 79.301C72.6693 78.4143 74.4695 77.3932 76.0817 76.2378C77.7208 75.0824 79.1717 73.8733 80.4346 72.6104C81.7244 71.3207 82.8126 70.0175 83.6993 68.7009C84.6129 67.3574 85.3383 66.0811 85.8757 64.8719C86.1176 64.2808 86.5744 63.9852 87.2461 63.9852C87.7029 63.9852 88.0656 64.1465 88.3343 64.4689C88.6299 64.7645 88.7777 65.1003 88.7777 65.4765C88.7777 65.6915 88.7374 65.893 88.6568 66.0811C88.0656 67.3977 87.3133 68.768 86.3997 70.1921C85.4861 71.5894 84.371 72.9732 83.0544 74.3435C81.7647 75.687 80.2465 76.9902 78.5 78.2531C76.7535 79.5159 74.7517 80.6713 72.4946 81.7192C73.9456 83.224 75.2085 84.8899 76.2833 86.717C77.358 88.571 78.2447 90.4922 78.9434 92.4806C79.6688 94.4689 80.2062 96.4707 80.5555 98.486C80.9317 100.528 81.1198 102.476 81.1198 104.33C81.1198 106.023 80.9586 107.608 80.6361 109.086C80.3406 110.591 79.8838 111.894 79.2658 112.996C78.6747 114.097 77.9492 114.957 77.0893 115.575C76.2295 116.22 75.2488 116.542 74.1471 116.542C72.5349 116.542 71.2855 115.938 70.3988 114.729C69.5121 113.546 68.8538 111.894 68.4239 109.771C68.0208 107.675 67.779 105.19 67.6984 102.315C67.6446 99.4667 67.6178 96.3632 67.6178 93.0045C67.6178 91.3386 67.6178 89.3906 67.6178 87.1604C67.6178 84.9571 67.6178 82.5791 67.6178 80.0265C67.6446 77.5007 67.6581 74.854 67.6581 72.0865C67.6849 69.292 67.7118 66.4976 67.7387 63.7031C67.7656 60.9086 67.7924 58.1679 67.8193 55.481C67.8462 52.7671 67.8865 50.2011 67.9402 47.7828C68.0208 43.1612 68.182 39.0367 68.4239 35.4093C68.6657 31.7819 69.0553 28.7187 69.5927 26.2198C70.1301 23.721 70.8556 21.8266 71.7691 20.5369C72.7096 19.2203 73.8918 18.562 75.3159 18.562C76.4445 18.562 77.3983 18.8844 78.1776 19.5293C78.9568 20.1473 79.5882 20.9937 80.0719 22.0685C80.5555 23.1164 80.9048 24.3524 81.1198 25.7765C81.3348 27.2006 81.4422 28.6919 81.4422 30.2503C81.4422 33.5284 81.1601 36.699 80.5958 39.7622C80.0316 42.8253 79.2658 45.7944 78.2985 48.6695C77.3312 51.5446 76.1892 54.3524 74.8726 57.0931C73.5828 59.8339 72.1991 62.5343 70.7212 65.1944C70.7212 66.296 70.7212 67.4917 70.7212 68.7815C70.7212 70.0444 70.7212 71.3207 70.7212 72.6104C70.7212 73.8733 70.7078 75.0959 70.6809 76.2781C70.6809 77.4335 70.6809 78.4411 70.6809 79.301ZM70.8018 58.9875C71.9035 56.9185 72.9111 54.742 73.8247 52.4581C74.7651 50.1473 75.5712 47.7694 76.2429 45.3242C76.9147 42.8791 77.4387 40.3802 77.8148 37.8276C78.191 35.2749 78.3791 32.7089 78.3791 30.1294C78.3791 28.8396 78.3119 27.6708 78.1776 26.6229C78.0701 25.575 77.882 24.6883 77.6133 23.9628C77.3715 23.2104 77.049 22.6327 76.646 22.2297C76.2698 21.7998 75.8265 21.5848 75.3159 21.5848C74.7785 21.5848 74.3083 21.9072 73.9053 22.5521C73.5022 23.197 73.1529 24.0568 72.8574 25.1316C72.5618 26.2064 72.3065 27.4424 72.0916 28.8396C71.9035 30.2369 71.7423 31.7013 71.6079 33.2328C71.4736 34.7375 71.3661 36.2557 71.2855 37.7873C71.2049 39.292 71.1377 40.7161 71.084 42.0595C71.0571 43.3762 71.0302 44.545 71.0034 45.566C71.0034 46.5871 71.0034 47.3529 71.0034 47.8634C70.9765 48.9382 70.9496 49.8921 70.9227 50.725C70.9227 51.558 70.9093 52.3775 70.8824 53.1836C70.8556 53.9897 70.8287 54.8495 70.8018 55.7631C70.8018 56.6767 70.8018 57.7515 70.8018 58.9875ZM70.6809 84.2584C70.6809 85.9512 70.6675 87.5231 70.6406 88.9741C70.6406 90.4519 70.6406 91.7954 70.6406 93.0045C70.6406 95.5034 70.654 97.9754 70.6809 100.421C70.7078 102.866 70.8287 105.056 71.0437 106.99C71.2855 108.952 71.6348 110.524 72.0916 111.706C72.5752 112.915 73.2604 113.52 74.1471 113.52C74.9532 113.52 75.6115 113.157 76.122 112.431C76.6326 111.706 77.0222 110.846 77.2909 109.852C77.5864 108.858 77.788 107.837 77.8954 106.789C78.0029 105.768 78.0567 104.935 78.0567 104.29C78.0567 102.651 77.8954 100.931 77.573 99.1308C77.2774 97.3306 76.8072 95.5437 76.1623 93.7703C75.5443 92.0238 74.7785 90.331 73.865 88.6919C72.9514 87.0529 71.8901 85.5751 70.6809 84.2584ZM89.0598 79.301C91.0482 78.4143 92.8484 77.3932 94.4606 76.2378C96.0997 75.0824 97.5506 73.8733 98.8135 72.6104C100.103 71.3207 101.191 70.0175 102.078 68.7009C102.992 67.3574 103.717 66.0811 104.255 64.8719C104.281 64.8182 104.295 64.7779 104.295 64.751C104.322 64.6973 104.362 64.6435 104.416 64.5898C104.523 62.3327 104.725 60.0488 105.02 57.738C105.074 57.3618 105.235 57.0394 105.504 56.7707C105.8 56.4751 106.176 56.3274 106.633 56.3274C107.036 56.3274 107.372 56.4886 107.64 56.811C107.909 57.1066 108.043 57.4559 108.043 57.8589C108.043 58.0202 108.003 58.5038 107.922 59.3099C107.869 60.116 107.788 61.0833 107.681 62.2118C107.6 63.3135 107.519 64.4958 107.439 65.7586C107.385 66.9946 107.358 68.1366 107.358 69.1845C107.358 70.6086 107.492 71.764 107.761 72.6507C108.057 73.5105 108.419 74.1823 108.849 74.6659C109.306 75.1496 109.776 75.472 110.26 75.6333C110.771 75.7945 111.254 75.8751 111.711 75.8751C112.463 75.8751 113.243 75.6064 114.049 75.069C114.855 74.5316 115.674 73.7792 116.507 72.8119C117.367 71.8446 118.227 70.6892 119.087 69.3457C119.947 67.9754 120.793 66.4572 121.626 64.7913C121.76 64.5226 121.948 64.3211 122.19 64.1868C122.432 64.0255 122.701 63.9449 122.996 63.9449C123.426 63.9449 123.775 64.1061 124.044 64.4286C124.34 64.751 124.488 65.1003 124.488 65.4765C124.488 65.7452 124.434 65.9736 124.326 66.1617C124.004 66.7797 123.601 67.532 123.117 68.4187C122.634 69.3054 122.083 70.219 121.465 71.1594C120.847 72.0999 120.162 73.0403 119.409 73.9808C118.684 74.8943 117.904 75.7273 117.071 76.4797C116.239 77.2051 115.365 77.7963 114.452 78.2531C113.538 78.7098 112.611 78.9382 111.671 78.9382C110.569 78.9382 109.588 78.7233 108.728 78.2934C107.869 77.8903 107.13 77.326 106.512 76.6006C105.921 75.8751 105.437 75.0153 105.061 74.0211C104.711 73.0269 104.483 71.9521 104.376 70.7967C102.978 72.8119 101.178 74.76 98.9747 76.6409C96.7983 78.5218 94.0979 80.2145 90.8735 81.7192C92.3245 83.224 93.5873 84.8899 94.6621 86.717C95.7369 88.571 96.6236 90.4922 97.3222 92.4806C98.0477 94.4689 98.5851 96.4707 98.9344 98.486C99.3106 100.528 99.4987 102.476 99.4987 104.33C99.4987 106.023 99.3375 107.608 99.015 109.086C98.7195 110.591 98.2627 111.894 97.6447 112.996C97.0535 114.097 96.3281 114.957 95.4682 115.575C94.6084 116.22 93.6277 116.542 92.526 116.542C90.9138 116.542 89.6644 115.938 88.7777 114.729C87.891 113.546 87.2327 111.894 86.8027 109.771C86.3997 107.675 86.1579 105.19 86.0773 102.315C86.0235 99.4667 85.9967 96.3632 85.9967 93.0045C85.9967 91.3386 85.9967 89.3906 85.9967 87.1604C85.9967 84.9571 85.9967 82.5791 85.9967 80.0265C86.0235 77.5007 86.037 74.854 86.037 72.0865C86.0638 69.292 86.0907 66.4976 86.1176 63.7031C86.1444 60.9086 86.1713 58.1679 86.1982 55.481C86.225 52.7671 86.2653 50.2011 86.3191 47.7828C86.3997 43.1612 86.5609 39.0367 86.8027 35.4093C87.0446 31.7819 87.4342 28.7187 87.9716 26.2198C88.509 23.721 89.2345 21.8266 90.148 20.5369C91.0885 19.2203 92.2707 18.562 93.6948 18.562C94.8234 18.562 95.7772 18.8844 96.5565 19.5293C97.3357 20.1473 97.9671 20.9937 98.4508 22.0685C98.9344 23.1164 99.2837 24.3524 99.4987 25.7765C99.7136 27.2006 99.8211 28.6919 99.8211 30.2503C99.8211 33.5284 99.539 36.699 98.9747 39.7622C98.4105 42.8253 97.6447 45.7944 96.6774 48.6695C95.7101 51.5446 94.5681 54.3524 93.2515 57.0931C91.9617 59.8339 90.5779 62.5343 89.1001 65.1944C89.1001 66.296 89.1001 67.4917 89.1001 68.7815C89.1001 70.0444 89.1001 71.3207 89.1001 72.6104C89.1001 73.8733 89.0867 75.0959 89.0598 76.2781C89.0598 77.4335 89.0598 78.4411 89.0598 79.301ZM89.1807 58.9875C90.2824 56.9185 91.29 54.742 92.2036 52.4581C93.144 50.1473 93.9501 47.7694 94.6218 45.3242C95.2936 42.8791 95.8175 40.3802 96.1937 37.8276C96.5699 35.2749 96.758 32.7089 96.758 30.1294C96.758 28.8396 96.6908 27.6708 96.5565 26.6229C96.449 25.575 96.2609 24.6883 95.9922 23.9628C95.7504 23.2104 95.4279 22.6327 95.0249 22.2297C94.6487 21.7998 94.2054 21.5848 93.6948 21.5848C93.1574 21.5848 92.6872 21.9072 92.2842 22.5521C91.8811 23.197 91.5318 24.0568 91.2362 25.1316C90.9407 26.2064 90.6854 27.4424 90.4705 28.8396C90.2824 30.2369 90.1212 31.7013 89.9868 33.2328C89.8525 34.7375 89.745 36.2557 89.6644 37.7873C89.5838 39.292 89.5166 40.7161 89.4628 42.0595C89.436 43.3762 89.4091 44.545 89.3822 45.566C89.3822 46.5871 89.3822 47.3529 89.3822 47.8634C89.3554 48.9382 89.3285 49.8921 89.3016 50.725C89.3016 51.558 89.2882 52.3775 89.2613 53.1836C89.2345 53.9897 89.2076 54.8495 89.1807 55.7631C89.1807 56.6767 89.1807 57.7515 89.1807 58.9875ZM89.0598 84.2584C89.0598 85.9512 89.0464 87.5231 89.0195 88.9741C89.0195 90.4519 89.0195 91.7954 89.0195 93.0045C89.0195 95.5034 89.0329 97.9754 89.0598 100.421C89.0867 102.866 89.2076 105.056 89.4225 106.99C89.6644 108.952 90.0137 110.524 90.4705 111.706C90.9541 112.915 91.6393 113.52 92.526 113.52C93.3321 113.52 93.9904 113.157 94.5009 112.431C95.0114 111.706 95.4011 110.846 95.6698 109.852C95.9653 108.858 96.1668 107.837 96.2743 106.789C96.3818 105.768 96.4355 104.935 96.4355 104.29C96.4355 102.651 96.2743 100.931 95.9519 99.1308C95.6563 97.3306 95.1861 95.5437 94.5412 93.7703C93.9232 92.0238 93.1574 90.331 92.2439 88.6919C91.3303 87.0529 90.2689 85.5751 89.0598 84.2584ZM110.824 45.687C110.824 46.708 110.462 47.5813 109.736 48.3068C109.037 49.0054 108.178 49.3547 107.157 49.3547C106.136 49.3547 105.262 49.0054 104.537 48.3068C103.838 47.5813 103.489 46.708 103.489 45.687C103.489 45.1764 103.583 44.7062 103.771 44.2763C103.959 43.8195 104.214 43.4299 104.537 43.1075C104.886 42.7582 105.276 42.4895 105.706 42.3014C106.162 42.1133 106.646 42.0192 107.157 42.0192C107.667 42.0192 108.137 42.1133 108.567 42.3014C109.024 42.4895 109.414 42.7582 109.736 43.1075C110.085 43.4299 110.354 43.8195 110.542 44.2763C110.73 44.7062 110.824 45.1764 110.824 45.687ZM108.567 45.687C108.567 45.3108 108.419 44.9883 108.124 44.7196C107.855 44.4241 107.533 44.2763 107.157 44.2763C106.78 44.2763 106.458 44.4241 106.189 44.7196C105.921 44.9883 105.786 45.3108 105.786 45.687C105.786 46.0631 105.921 46.3856 106.189 46.6543C106.458 46.923 106.78 47.0573 107.157 47.0573C107.533 47.0573 107.855 46.923 108.124 46.6543C108.419 46.3856 108.567 46.0631 108.567 45.687ZM130.574 73.6986C131.003 72.8119 131.501 71.8446 132.065 70.7967C132.629 69.7219 133.234 68.6471 133.879 67.5723C134.523 66.4707 135.195 65.3825 135.894 64.3077C136.619 63.2329 137.372 62.2118 138.151 61.2445C138.93 60.3041 139.709 59.6323 140.488 59.2293C141.295 58.7994 142.047 58.5844 142.746 58.5844C144.143 58.5844 145.177 59.0949 145.849 60.116C146.521 61.137 146.857 62.3999 146.857 63.9046C146.857 64.2539 146.83 64.6838 146.776 65.1944C146.749 65.678 146.709 66.202 146.655 66.7662C146.628 67.3305 146.588 67.9082 146.534 68.4993C146.507 69.0636 146.494 69.601 146.494 70.1115C146.494 70.7564 146.521 71.3744 146.574 71.9655C146.655 72.5567 146.789 73.0806 146.977 73.5374C147.166 73.9673 147.434 74.3166 147.784 74.5853C148.133 74.8272 148.59 74.9481 149.154 74.9481C150.175 74.9481 151.169 74.5585 152.136 73.7792C153.104 72.9732 153.99 72.0327 154.797 70.9579C155.63 69.8563 156.342 68.7412 156.933 67.6126C157.551 66.4841 158.008 65.5705 158.303 64.8719C158.437 64.5764 158.626 64.348 158.867 64.1868C159.136 64.0255 159.418 63.9449 159.714 63.9449C160.171 63.9449 160.533 64.1196 160.802 64.4689C161.098 64.7913 161.245 65.1406 161.245 65.5168C161.245 65.7049 161.205 65.893 161.124 66.0811C161.017 66.296 160.802 66.7394 160.48 67.4111C160.157 68.0829 159.727 68.8621 159.19 69.7488C158.679 70.6086 158.075 71.5356 157.376 72.5298C156.677 73.4971 155.898 74.3838 155.038 75.1899C154.205 75.996 153.292 76.6677 152.298 77.2051C151.33 77.7425 150.309 78.0112 149.235 78.0112C148.025 78.0112 147.045 77.7828 146.292 77.326C145.54 76.8424 144.949 76.2244 144.519 75.472C144.089 74.6928 143.793 73.8464 143.632 72.9329C143.498 71.9924 143.431 71.052 143.431 70.1115C143.431 69.7085 143.444 69.2517 143.471 68.7412C143.525 68.2306 143.578 67.6933 143.632 67.129C143.713 66.5647 143.767 66.0005 143.793 65.4362C143.847 64.8719 143.874 64.3345 143.874 63.824C143.874 62.9642 143.74 62.3865 143.471 62.0909C143.202 61.7685 142.96 61.6073 142.746 61.6073C142.316 61.6073 141.819 61.8625 141.254 62.373C140.717 62.8567 140.139 63.5016 139.521 64.3077C138.93 65.1138 138.312 66.0273 137.667 67.0484C137.049 68.0426 136.458 69.0367 135.894 70.0309C135.356 71.0251 134.846 71.979 134.362 72.8925C133.905 73.7792 133.543 74.5182 133.274 75.1093C132.737 76.2378 132.199 76.9902 131.662 77.3664C131.124 77.7694 130.574 77.9709 130.009 77.9709C129.23 77.9709 128.599 77.7425 128.115 77.2857C127.658 76.8021 127.43 76.1303 127.43 75.2705C127.43 75.0824 127.457 74.7197 127.51 74.1823C127.564 73.618 127.631 72.9597 127.712 72.2074C127.793 71.4281 127.873 70.5952 127.954 69.7085C128.034 68.8218 128.115 67.9485 128.196 67.0887C128.276 66.202 128.343 65.3825 128.397 64.6301C128.451 63.8778 128.478 63.2463 128.478 62.7358C128.478 62.064 128.451 61.4192 128.397 60.8012C128.343 60.1832 128.236 59.807 128.075 59.6726C127.833 59.7533 127.403 60.2638 126.785 61.2042C126.167 62.1178 125.374 63.7434 124.407 66.0811C124.273 66.3766 124.071 66.605 123.802 66.7662C123.534 66.9275 123.252 67.0081 122.956 67.0081C122.499 67.0081 122.136 66.8603 121.868 66.5647C121.599 66.2423 121.465 65.8795 121.465 65.4765C121.465 65.2884 121.505 65.0869 121.586 64.8719C122.795 61.9969 123.923 59.8876 124.971 58.5441C126.046 57.1738 127.107 56.4886 128.155 56.4886C128.773 56.4886 129.297 56.6498 129.727 56.9722C130.157 57.2678 130.493 57.6708 130.735 58.1814C131.003 58.6919 131.192 59.2562 131.299 59.8742C131.433 60.4922 131.501 61.1236 131.501 61.7685C131.501 62.2521 131.46 63.0045 131.38 64.0255C131.326 65.0466 131.245 66.1482 131.138 67.3305C131.03 68.4859 130.923 69.6413 130.815 70.7967C130.735 71.9521 130.654 72.9194 130.574 73.6986ZM162.857 62.4134C162.696 62.8433 162.495 63.3269 162.253 63.8643C162.038 64.4017 161.783 64.966 161.487 65.5571C161.245 66.0139 160.99 66.3766 160.721 66.6453C160.48 66.8872 160.157 67.0081 159.754 67.0081C159.297 67.0081 158.935 66.8737 158.666 66.605C158.397 66.3095 158.263 65.9736 158.263 65.5974C158.263 65.4631 158.276 65.3556 158.303 65.275C158.33 65.1675 158.397 65.0063 158.505 64.7913C159.203 63.4478 159.714 62.279 160.036 61.2848C160.385 60.2638 160.668 59.2024 160.883 58.1008C160.694 57.4828 160.56 56.9588 160.48 56.5289C160.399 56.099 160.359 55.6556 160.359 55.1988C160.359 54.3121 160.547 53.6001 160.923 53.0627C161.299 52.4984 161.823 52.2163 162.495 52.2163C163.113 52.2163 163.596 52.485 163.946 53.0224C164.322 53.5598 164.51 54.2181 164.51 54.9973C164.51 55.4272 164.47 55.8571 164.389 56.2871C164.308 56.717 164.201 57.2544 164.067 57.8992C164.685 59.4308 165.303 60.7877 165.921 61.97C166.539 63.1523 167.089 64.2405 167.573 65.2347C168.057 66.202 168.446 67.1156 168.742 67.9754C169.064 68.8352 169.226 69.695 169.226 70.5549C169.226 71.6834 168.997 72.7582 168.54 73.7792C168.084 74.8003 167.331 75.6601 166.283 76.3587C166.418 76.3856 166.552 76.399 166.686 76.399C166.821 76.399 166.955 76.399 167.089 76.399C168.621 76.399 170.032 76.0497 171.321 75.3511C172.611 74.6525 173.767 73.7524 174.788 72.6507C175.836 71.5222 176.763 70.2862 177.569 68.9427C178.375 67.5723 179.073 66.2154 179.665 64.8719C179.933 64.2539 180.309 63.9449 180.793 63.9449C181.25 63.9449 181.599 64.1061 181.841 64.4286C182.11 64.751 182.244 65.1003 182.244 65.4765C182.244 65.6915 182.204 65.893 182.123 66.0811C181.828 66.8066 181.438 67.6395 180.954 68.58C180.497 69.4935 179.933 70.4474 179.261 71.4416C178.617 72.4089 177.864 73.3628 177.004 74.3032C176.145 75.2436 175.177 76.09 174.102 76.8424C173.055 77.5679 171.899 78.1456 170.636 78.5755C169.373 79.0323 167.99 79.2607 166.485 79.2607C164.685 79.2607 163.005 78.9382 161.447 78.2934C159.915 77.6754 158.666 76.6409 157.699 75.1899C157.537 74.9481 157.457 74.6928 157.457 74.4241C157.457 74.0211 157.604 73.6718 157.9 73.3762C158.222 73.0538 158.585 72.8925 158.988 72.8925C159.418 72.8925 159.781 73.0403 160.076 73.3359C160.103 73.3896 160.197 73.4837 160.359 73.618C160.52 73.7255 160.708 73.8599 160.923 74.0211C161.165 74.1554 161.433 74.2763 161.729 74.3838C162.051 74.4913 162.374 74.545 162.696 74.545C163.341 74.545 163.879 74.4107 164.308 74.142C164.765 73.8733 165.128 73.5509 165.397 73.1747C165.665 72.7716 165.853 72.3552 165.961 71.9252C166.095 71.4685 166.162 71.0788 166.162 70.7564C166.162 70.0847 166.055 69.4129 165.84 68.7412C165.625 68.0694 165.343 67.3977 164.994 66.7259C164.671 66.0542 164.308 65.369 163.905 64.6704C163.529 63.9449 163.18 63.1926 162.857 62.4134ZM187.403 76.1572C187.403 76.7752 187.188 77.2857 186.758 77.6888C186.355 78.1187 185.845 78.3337 185.227 78.3337C184.609 78.3337 184.085 78.1187 183.655 77.6888C183.252 77.2857 183.05 76.7752 183.05 76.1572C183.05 75.5661 183.252 75.069 183.655 74.6659C184.085 74.236 184.609 74.0211 185.227 74.0211C185.845 74.0211 186.355 74.236 186.758 74.6659C187.188 75.069 187.403 75.5661 187.403 76.1572Z" fill="black"/>
<circle cx="107.178" cy="45.6887" r="3.86263" fill="#DF101D"/>
<circle cx="186.258" cy="76.0018" r="3.86263" fill="#F9A829"/>
</svg>
