<svg width="201" height="118" viewBox="0 0 201 118" fill="none" xmlns="http://www.w3.org/2000/svg">
<path d="M30.2788 65.755C30.2788 68.227 29.8354 70.3363 28.9487 72.0828C28.062 73.8294 26.9738 75.1594 25.684 76.073H25.8453C27.4306 76.073 28.8681 75.7237 30.1579 75.0251C31.4745 74.2996 32.6567 73.386 33.7047 72.2844C34.7526 71.1558 35.693 69.9064 36.526 68.536C37.3589 67.1657 38.0979 65.8356 38.7427 64.5459C38.8771 64.2503 39.0652 64.0219 39.307 63.8607C39.5757 63.6995 39.8578 63.6189 40.1534 63.6189C40.6102 63.6189 40.9729 63.7801 41.2416 64.1025C41.5103 64.425 41.6447 64.7743 41.6447 65.1505C41.6447 65.3654 41.6044 65.5669 41.5237 65.755C40.8251 67.3135 39.9922 68.8853 39.0249 70.4707C38.0576 72.0291 36.929 73.4398 35.6393 74.7026C34.3495 75.9655 32.8986 76.9866 31.2864 77.7658C29.6742 78.5719 27.8874 78.9749 25.9259 78.9749C24.5018 78.9749 23.118 78.7465 21.7745 78.2897C20.431 77.8598 19.2487 77.1747 18.2277 76.2342C17.8515 75.9386 17.5291 75.6296 17.2604 75.3072C16.9917 74.9579 16.7767 74.6355 16.6155 74.3399C16.5618 74.2862 16.5349 74.2324 16.5349 74.1787C16.3737 73.9369 16.2931 73.6816 16.2931 73.4129C16.2931 73.0636 16.414 72.7411 16.6558 72.4456C16.6827 72.3918 16.7096 72.365 16.7364 72.365C16.7633 72.3381 16.7902 72.3112 16.817 72.2844C17.0857 72.0425 17.3813 71.9082 17.7037 71.8813H17.8247C17.959 71.8813 18.053 71.8948 18.1068 71.9216C18.1337 71.9216 18.1471 71.9351 18.1471 71.9619C18.174 71.9619 18.2008 71.9619 18.2277 71.9619C18.3083 71.9619 18.4024 71.9888 18.5098 72.0425C18.5367 72.0694 18.5636 72.0828 18.5904 72.0828C18.8323 72.2441 19.0338 72.4456 19.195 72.6874C19.3831 73.0098 19.5981 73.3054 19.8399 73.5741C20.0548 73.7891 20.3101 73.9906 20.6057 74.1787C20.9012 74.3399 21.2371 74.4205 21.6133 74.4205C22.285 74.4205 22.9568 74.219 23.6285 73.8159C24.3003 73.4129 24.9048 72.8352 25.4422 72.0828C25.9796 71.3305 26.4095 70.4169 26.732 69.3421C27.0813 68.2673 27.2559 67.0716 27.2559 65.755C27.2559 64.7877 27.1484 63.9682 26.9335 63.2964C26.7454 62.5978 26.4901 62.0336 26.1677 61.6036C25.8721 61.1737 25.5497 60.8647 25.2004 60.6766C24.8511 60.4617 24.5152 60.3542 24.1928 60.3542C23.4673 60.3542 22.7284 60.7304 21.976 61.4827C21.2505 62.2351 20.5251 63.189 19.7996 64.3444C19.0741 65.4998 18.3486 66.7761 17.6231 68.1733C16.9245 69.5705 16.2125 70.9274 15.487 72.2441C15.4332 76.597 15.3526 80.7483 15.2452 84.6982C15.1646 88.648 15.0033 92.3157 14.7615 95.7013C14.5465 99.0869 14.2375 102.15 13.8345 104.891C13.4315 107.631 12.8806 109.969 12.182 111.904C11.4834 113.865 10.6236 115.37 9.60252 116.418C8.58147 117.466 7.33203 117.99 5.85419 117.99C5.39741 117.99 4.87345 117.896 4.28231 117.708C3.69118 117.52 3.14035 117.13 2.62983 116.539C2.1193 115.975 1.68939 115.155 1.34008 114.08C0.990774 113.005 0.816121 111.568 0.816121 109.768C0.816121 107.484 1.09825 104.837 1.66252 101.828C2.22678 98.8182 3.03287 95.6207 4.08079 92.2351C5.10184 88.8764 6.32441 85.4237 7.74851 81.8769C9.1726 78.3301 10.7445 74.8773 12.4641 71.5186C12.4641 70.5781 12.4641 69.6511 12.4641 68.7376C12.491 67.824 12.5044 66.9373 12.5044 66.0775C12.1551 66.4805 11.7387 66.682 11.255 66.682C10.7982 66.682 10.4355 66.5208 10.1668 66.1984C9.89809 65.8759 9.76374 65.5266 9.76374 65.1505C9.76374 64.9624 9.80404 64.7608 9.88465 64.5459C10.5295 63.068 11.0266 61.6708 11.3759 60.3542C11.7252 59.0107 11.9805 57.8419 12.1417 56.8477C12.3298 55.8267 12.4373 55.0206 12.4641 54.4294C12.491 53.8383 12.5044 53.5293 12.5044 53.5024C12.5044 53.0994 12.6522 52.7501 12.9478 52.4545C13.2434 52.1589 13.6061 52.0112 14.036 52.0112C14.4391 52.0112 14.7884 52.1589 15.0839 52.4545C15.3795 52.7232 15.5273 53.0725 15.5273 53.5024V65.8759C16.1453 64.828 16.7633 63.7935 17.3813 62.7725C17.9993 61.7514 18.6442 60.8379 19.3159 60.0318C20.0145 59.2257 20.7535 58.5808 21.5327 58.0972C22.3388 57.5866 23.2255 57.3314 24.1928 57.3314C25.1063 57.3314 25.9393 57.5463 26.6917 57.9762C27.444 58.4062 28.0889 58.9973 28.6263 59.7496C29.1637 60.502 29.5667 61.4021 29.8354 62.45C30.131 63.4711 30.2788 64.5728 30.2788 65.755ZM12.3835 78.6928C11.0669 81.6485 9.87122 84.6176 8.79643 87.6001C7.74851 90.5826 6.86181 93.4577 6.13633 96.2253C5.38397 98.9929 4.80627 101.586 4.40323 104.004C4.00018 106.422 3.79866 108.545 3.79866 110.372C3.79866 110.829 3.82553 111.326 3.87927 111.863C3.93301 112.401 4.04049 112.898 4.20171 113.355C4.36292 113.812 4.59132 114.188 4.88688 114.483C5.18245 114.806 5.57206 114.967 6.05572 114.967C6.94242 114.967 7.7082 114.403 8.35308 113.274C8.99795 112.172 9.53535 110.668 9.96526 108.76C10.422 106.879 10.7982 104.703 11.0938 102.231C11.3894 99.7855 11.6177 97.2195 11.779 94.5325C11.9671 91.8455 12.1014 89.1317 12.182 86.391C12.2626 83.6771 12.3298 81.1111 12.3835 78.6928ZM52.1642 72.4859C51.2237 74.0175 50.1221 75.2266 48.8592 76.1133C47.6232 77 46.3737 77.4434 45.1109 77.4434C44.0898 77.4434 43.1762 77.2553 42.3701 76.8791C41.5641 76.5029 40.8654 75.979 40.2743 75.3072C39.6832 74.6086 39.2264 73.7756 38.904 72.8083C38.6084 71.841 38.4606 70.7528 38.4606 69.5437C38.4606 67.6628 38.6353 65.9968 38.9846 64.5459C39.3607 63.0949 39.7638 61.8858 40.1937 60.9185C40.6236 59.9243 41.0267 59.1719 41.4028 58.6614C41.779 58.1509 41.9671 57.8956 41.9671 57.8956C42.1014 57.7344 42.2627 57.6135 42.4508 57.5329C42.6657 57.4523 42.8807 57.412 43.0956 57.412C43.5255 57.412 43.8748 57.5732 44.1435 57.8956C44.4391 58.1912 44.5869 58.5405 44.5869 58.9435C44.5869 59.1048 44.5466 59.266 44.466 59.4272C44.4122 59.5884 44.3451 59.7496 44.2645 59.9109C44.1301 60.1527 43.9152 60.5289 43.6196 61.0394C43.324 61.523 43.015 62.1679 42.6926 62.974C42.3701 63.7801 42.088 64.734 41.8462 65.8356C41.6044 66.9104 41.4834 68.1464 41.4834 69.5437C41.4834 71.129 41.7924 72.3381 42.4104 73.1711C43.0553 73.9772 43.9555 74.3802 45.1109 74.3802C45.5945 74.3802 46.1453 74.2324 46.7633 73.9369C47.4082 73.6144 48.0262 73.1308 48.6174 72.4859C49.2354 71.841 49.7728 71.0215 50.2295 70.0273C50.6863 69.0331 50.9819 67.8643 51.1162 66.5208L51.7208 59.5884C51.7745 59.1854 51.9492 58.8495 52.2448 58.5808C52.5403 58.3121 52.8896 58.1778 53.2927 58.1778C53.7495 58.1778 54.1122 58.3524 54.3809 58.7017C54.6496 59.0242 54.784 59.4003 54.784 59.8302L54.26 66.5208C54.2063 67.0851 54.2197 67.824 54.3003 68.7376C54.4078 69.6511 54.6093 70.5513 54.9049 71.438C55.2004 72.3247 55.6438 73.0905 56.2349 73.7353C56.8261 74.3533 57.6053 74.6623 58.5726 74.6623C59.2712 74.6623 59.9564 74.4877 60.6281 74.1384C61.2999 73.7622 61.9447 73.2785 62.5627 72.6874C63.1807 72.0963 63.745 71.438 64.2555 70.7125C64.7929 69.9601 65.2766 69.2078 65.7065 68.4554C66.1633 67.7031 66.5529 66.991 66.8753 66.3193C67.1978 65.6207 67.4665 65.0295 67.6814 64.5459C67.8158 64.2503 68.0039 64.0219 68.2457 63.8607C68.4875 63.6995 68.7562 63.6189 69.0518 63.6189C69.5354 63.6189 69.9116 63.7801 70.1803 64.1025C70.449 64.425 70.5834 64.7743 70.5834 65.1505C70.5834 65.3654 70.543 65.5669 70.4624 65.755C70.355 65.97 70.14 66.4268 69.8176 67.1254C69.522 67.7971 69.119 68.5763 68.6084 69.463C68.1248 70.3229 67.5336 71.2364 66.835 72.2038C66.1364 73.1711 65.3572 74.0712 64.4974 74.9042C63.6375 75.7103 62.6971 76.382 61.676 76.9194C60.6819 77.4299 59.6071 77.6852 58.4517 77.6852C56.8664 77.6852 55.5497 77.2418 54.5018 76.3551C53.4539 75.4416 52.6747 74.1518 52.1642 72.4859ZM70.8655 78.9749C72.8538 78.0882 74.6541 77.0672 76.2663 75.9118C77.9054 74.7564 79.3563 73.5472 80.6192 72.2844C81.9089 70.9946 82.9972 69.6914 83.8839 68.3748C84.7974 67.0313 85.5229 65.755 86.0603 64.5459C86.3021 63.9548 86.7589 63.6592 87.4307 63.6592C87.8875 63.6592 88.2502 63.8204 88.5189 64.1428C88.8145 64.4384 88.9622 64.7743 88.9622 65.1505C88.9622 65.3654 88.9219 65.5669 88.8413 65.755C88.2502 67.0716 87.4978 68.442 86.5843 69.8661C85.6707 71.2633 84.5556 72.6471 83.239 74.0175C81.9492 75.3609 80.4311 76.6641 78.6846 77.927C76.938 79.1899 74.9362 80.3453 72.6792 81.3932C74.1302 82.8979 75.393 84.5638 76.4678 86.391C77.5426 88.245 78.4293 90.1662 79.1279 92.1545C79.8534 94.1429 80.3908 96.1447 80.7401 98.1599C81.1163 100.202 81.3044 102.15 81.3044 104.004C81.3044 105.697 81.1432 107.282 80.8207 108.76C80.5252 110.265 80.0684 111.568 79.4504 112.67C78.8592 113.771 78.1337 114.631 77.2739 115.249C76.4141 115.894 75.4333 116.216 74.3317 116.216C72.7195 116.216 71.4701 115.612 70.5834 114.403C69.6967 113.22 69.0383 111.568 68.6084 109.445C68.2054 107.349 67.9636 104.864 67.8829 101.989C67.8292 99.1407 67.8023 96.0372 67.8023 92.6785C67.8023 91.0126 67.8023 89.0645 67.8023 86.8343C67.8023 84.631 67.8023 82.253 67.8023 79.7004C67.8292 77.1747 67.8426 74.528 67.8426 71.7604C67.8695 68.966 67.8964 66.1715 67.9233 63.3771C67.9501 60.5826 67.977 57.8419 68.0039 55.1549C68.0307 52.4411 68.071 49.875 68.1248 47.4567C68.2054 42.8351 68.3666 38.7106 68.6084 35.0832C68.8503 31.4558 69.2399 28.3927 69.7773 25.8938C70.3147 23.3949 71.0401 21.5006 71.9537 20.2108C72.8942 18.8942 74.0764 18.2359 75.5005 18.2359C76.629 18.2359 77.5829 18.5584 78.3621 19.2032C79.1414 19.8212 79.7728 20.6676 80.2565 21.7424C80.7401 22.7903 81.0894 24.0263 81.3044 25.4504C81.5193 26.8745 81.6268 28.3658 81.6268 29.9242C81.6268 33.2024 81.3447 36.373 80.7804 39.4361C80.2161 42.4993 79.4504 45.4684 78.4831 48.3434C77.5157 51.2185 76.3738 54.0264 75.0572 56.7671C73.7674 59.5078 72.3836 62.2082 70.9058 64.8683C70.9058 65.97 70.9058 67.1657 70.9058 68.4554C70.9058 69.7183 70.9058 70.9946 70.9058 72.2844C70.9058 73.5472 70.8924 74.7698 70.8655 75.9521C70.8655 77.1075 70.8655 78.1151 70.8655 78.9749ZM70.9864 58.6614C72.0881 56.5924 73.0957 54.416 74.0092 52.1321C74.9497 49.8213 75.7558 47.4433 76.4275 44.9982C77.0993 42.553 77.6232 40.0541 77.9994 37.5015C78.3756 34.9489 78.5637 32.3828 78.5637 29.8033C78.5637 28.5136 78.4965 27.3448 78.3621 26.2968C78.2547 25.2489 78.0666 24.3622 77.7979 23.6367C77.556 22.8844 77.2336 22.3067 76.8306 21.9036C76.4544 21.4737 76.011 21.2588 75.5005 21.2588C74.9631 21.2588 74.4929 21.5812 74.0899 22.2261C73.6868 22.8709 73.3375 23.7308 73.0419 24.8056C72.7464 25.8804 72.4911 27.1164 72.2761 28.5136C72.0881 29.9108 71.9268 31.3752 71.7925 32.9068C71.6581 34.4115 71.5507 35.9296 71.4701 37.4612C71.3894 38.9659 71.3223 40.39 71.2685 41.7335C71.2417 43.0501 71.2148 44.2189 71.1879 45.24C71.1879 46.261 71.1879 47.0268 71.1879 47.5374C71.1611 48.6121 71.1342 49.566 71.1073 50.399C71.1073 51.2319 71.0939 52.0515 71.067 52.8576C71.0401 53.6636 71.0133 54.5235 70.9864 55.437C70.9864 56.3506 70.9864 57.4254 70.9864 58.6614ZM70.8655 83.9324C70.8655 85.6252 70.8521 87.1971 70.8252 88.648C70.8252 90.1259 70.8252 91.4693 70.8252 92.6785C70.8252 95.1774 70.8386 97.6494 70.8655 100.095C70.8924 102.54 71.0133 104.73 71.2282 106.664C71.4701 108.626 71.8194 110.198 72.2761 111.38C72.7598 112.589 73.445 113.194 74.3317 113.194C75.1378 113.194 75.7961 112.831 76.3066 112.105C76.8171 111.38 77.2067 110.52 77.4754 109.526C77.771 108.532 77.9725 107.511 78.08 106.463C78.1875 105.442 78.2412 104.609 78.2412 103.964C78.2412 102.325 78.08 100.605 77.7576 98.8048C77.462 97.0045 76.9918 95.2177 76.3469 93.4443C75.7289 91.6977 74.9631 90.0049 74.0495 88.3659C73.136 86.7268 72.0746 85.249 70.8655 83.9324ZM89.2444 78.9749C91.2327 78.0882 93.033 77.0672 94.6452 75.9118C96.2842 74.7564 97.7352 73.5472 98.9981 72.2844C100.288 70.9946 101.376 69.6914 102.263 68.3748C103.176 67.0313 103.902 65.755 104.439 64.5459C104.466 64.4921 104.48 64.4518 104.48 64.425C104.506 64.3712 104.547 64.3175 104.6 64.2638C104.708 62.0067 104.909 59.7228 105.205 57.412C105.259 57.0358 105.42 56.7134 105.689 56.4447C105.984 56.1491 106.36 56.0013 106.817 56.0013C107.22 56.0013 107.556 56.1625 107.825 56.485C108.093 56.7805 108.228 57.1298 108.228 57.5329C108.228 57.6941 108.188 58.1778 108.107 58.9839C108.053 59.7899 107.973 60.7573 107.865 61.8858C107.784 62.9874 107.704 64.1697 107.623 65.4326C107.57 66.6686 107.543 67.8106 107.543 68.8585C107.543 70.2826 107.677 71.438 107.946 72.3247C108.241 73.1845 108.604 73.8562 109.034 74.3399C109.491 74.8236 109.961 75.146 110.445 75.3072C110.955 75.4684 111.439 75.549 111.896 75.549C112.648 75.549 113.427 75.2803 114.233 74.7429C115.039 74.2055 115.859 73.4532 116.692 72.4859C117.552 71.5186 118.411 70.3632 119.271 69.0197C120.131 67.6493 120.978 66.1312 121.81 64.4653C121.945 64.1966 122.133 63.9951 122.375 63.8607C122.617 63.6995 122.885 63.6189 123.181 63.6189C123.611 63.6189 123.96 63.7801 124.229 64.1025C124.524 64.425 124.672 64.7743 124.672 65.1505C124.672 65.4191 124.618 65.6475 124.511 65.8356C124.188 66.4536 123.785 67.206 123.302 68.0927C122.818 68.9794 122.267 69.893 121.649 70.8334C121.031 71.7738 120.346 72.7143 119.594 73.6547C118.868 74.5683 118.089 75.4013 117.256 76.1536C116.423 76.8791 115.55 77.4702 114.636 77.927C113.723 78.3838 112.796 78.6122 111.855 78.6122C110.754 78.6122 109.773 78.3972 108.913 77.9673C108.053 77.5643 107.314 77 106.696 76.2745C106.105 75.549 105.621 74.6892 105.245 73.695C104.896 72.7008 104.668 71.6261 104.56 70.4707C103.163 72.4859 101.363 74.4339 99.1593 76.3148C96.9828 78.1957 94.2824 79.8885 91.0581 81.3932C92.509 82.8979 93.7719 84.5638 94.8467 86.391C95.9215 88.245 96.8082 90.1662 97.5068 92.1545C98.2323 94.1429 98.7697 96.1447 99.119 98.1599C99.4952 100.202 99.6833 102.15 99.6833 104.004C99.6833 105.697 99.522 107.282 99.1996 108.76C98.904 110.265 98.4472 111.568 97.8292 112.67C97.2381 113.771 96.5126 114.631 95.6528 115.249C94.793 115.894 93.8122 116.216 92.7106 116.216C91.0984 116.216 89.8489 115.612 88.9622 114.403C88.0755 113.22 87.4172 111.568 86.9873 109.445C86.5843 107.349 86.3424 104.864 86.2618 101.989C86.2081 99.1407 86.1812 96.0372 86.1812 92.6785C86.1812 91.0126 86.1812 89.0645 86.1812 86.8343C86.1812 84.631 86.1812 82.253 86.1812 79.7004C86.2081 77.1747 86.2215 74.528 86.2215 71.7604C86.2484 68.966 86.2753 66.1715 86.3021 63.3771C86.329 60.5826 86.3559 57.8419 86.3827 55.1549C86.4096 52.4411 86.4499 49.875 86.5037 47.4567C86.5843 42.8351 86.7455 38.7106 86.9873 35.0832C87.2291 31.4558 87.6188 28.3927 88.1561 25.8938C88.6935 23.3949 89.419 21.5006 90.3326 20.2108C91.273 18.8942 92.4553 18.2359 93.8794 18.2359C95.0079 18.2359 95.9618 18.5584 96.741 19.2032C97.5202 19.8212 98.1517 20.6676 98.6353 21.7424C99.119 22.7903 99.4683 24.0263 99.6833 25.4504C99.8982 26.8745 100.006 28.3658 100.006 29.9242C100.006 33.2024 99.7236 36.373 99.1593 39.4361C98.595 42.4993 97.8292 45.4684 96.8619 48.3434C95.8946 51.2185 94.7527 54.0264 93.436 56.7671C92.1463 59.5078 90.7625 62.2082 89.2847 64.8683C89.2847 65.97 89.2847 67.1657 89.2847 68.4554C89.2847 69.7183 89.2847 70.9946 89.2847 72.2844C89.2847 73.5472 89.2712 74.7698 89.2444 75.9521C89.2444 77.1075 89.2444 78.1151 89.2444 78.9749ZM89.3653 58.6614C90.4669 56.5924 91.4746 54.416 92.3881 52.1321C93.3286 49.8213 94.1347 47.4433 94.8064 44.9982C95.4781 42.553 96.0021 40.0541 96.3783 37.5015C96.7545 34.9489 96.9425 32.3828 96.9425 29.8033C96.9425 28.5136 96.8754 27.3448 96.741 26.2968C96.6335 25.2489 96.4455 24.3622 96.1768 23.6367C95.9349 22.8844 95.6125 22.3067 95.2094 21.9036C94.8333 21.4737 94.3899 21.2588 93.8794 21.2588C93.342 21.2588 92.8718 21.5812 92.4687 22.2261C92.0657 22.8709 91.7164 23.7308 91.4208 24.8056C91.1253 25.8804 90.87 27.1164 90.655 28.5136C90.4669 29.9108 90.3057 31.3752 90.1714 32.9068C90.037 34.4115 89.9295 35.9296 89.8489 37.4612C89.7683 38.9659 89.7012 40.39 89.6474 41.7335C89.6205 43.0501 89.5937 44.2189 89.5668 45.24C89.5668 46.261 89.5668 47.0268 89.5668 47.5374C89.5399 48.6121 89.5131 49.566 89.4862 50.399C89.4862 51.2319 89.4728 52.0515 89.4459 52.8576C89.419 53.6636 89.3922 54.5235 89.3653 55.437C89.3653 56.3506 89.3653 57.4254 89.3653 58.6614ZM89.2444 83.9324C89.2444 85.6252 89.2309 87.1971 89.2041 88.648C89.2041 90.1259 89.2041 91.4693 89.2041 92.6785C89.2041 95.1774 89.2175 97.6494 89.2444 100.095C89.2712 102.54 89.3922 104.73 89.6071 106.664C89.8489 108.626 90.1982 110.198 90.655 111.38C91.1387 112.589 91.8239 113.194 92.7106 113.194C93.5167 113.194 94.175 112.831 94.6855 112.105C95.196 111.38 95.5856 110.52 95.8543 109.526C96.1499 108.532 96.3514 107.511 96.4589 106.463C96.5664 105.442 96.6201 104.609 96.6201 103.964C96.6201 102.325 96.4589 100.605 96.1365 98.8048C95.8409 97.0045 95.3707 95.2177 94.7258 93.4443C94.1078 91.6977 93.342 90.0049 92.4284 88.3659C91.5149 86.7268 90.4535 85.249 89.2444 83.9324ZM111.009 45.3609C111.009 46.382 110.646 47.2552 109.921 47.9807C109.222 48.6793 108.362 49.0286 107.341 49.0286C106.32 49.0286 105.447 48.6793 104.721 47.9807C104.023 47.2552 103.673 46.382 103.673 45.3609C103.673 44.8504 103.767 44.3802 103.956 43.9502C104.144 43.4935 104.399 43.1038 104.721 42.7814C105.071 42.4321 105.46 42.1634 105.89 41.9753C106.347 41.7872 106.831 41.6932 107.341 41.6932C107.852 41.6932 108.322 41.7872 108.752 41.9753C109.209 42.1634 109.598 42.4321 109.921 42.7814C110.27 43.1038 110.539 43.4935 110.727 43.9502C110.915 44.3802 111.009 44.8504 111.009 45.3609ZM108.752 45.3609C108.752 44.9847 108.604 44.6623 108.308 44.3936C108.04 44.098 107.717 43.9502 107.341 43.9502C106.965 43.9502 106.643 44.098 106.374 44.3936C106.105 44.6623 105.971 44.9847 105.971 45.3609C105.971 45.7371 106.105 46.0595 106.374 46.3282C106.643 46.5969 106.965 46.7313 107.341 46.7313C107.717 46.7313 108.04 46.5969 108.308 46.3282C108.604 46.0595 108.752 45.7371 108.752 45.3609ZM130.758 73.3726C131.188 72.4859 131.685 71.5186 132.249 70.4707C132.814 69.3959 133.418 68.3211 134.063 67.2463C134.708 66.1446 135.38 65.0564 136.078 63.9816C136.804 62.9068 137.556 61.8858 138.335 60.9185C139.115 59.978 139.894 59.3063 140.673 58.9032C141.479 58.4733 142.231 58.2584 142.93 58.2584C144.327 58.2584 145.362 58.7689 146.034 59.7899C146.705 60.811 147.041 62.0739 147.041 63.5786C147.041 63.9279 147.014 64.3578 146.961 64.8683C146.934 65.352 146.893 65.8759 146.84 66.4402C146.813 67.0045 146.772 67.5822 146.719 68.1733C146.692 68.7376 146.678 69.275 146.678 69.7855C146.678 70.4304 146.705 71.0484 146.759 71.6395C146.84 72.2306 146.974 72.7546 147.162 73.2114C147.35 73.6413 147.619 73.9906 147.968 74.2593C148.317 74.5011 148.774 74.622 149.339 74.622C150.36 74.622 151.354 74.2324 152.321 73.4532C153.288 72.6471 154.175 71.7067 154.981 70.6319C155.814 69.5302 156.526 68.4151 157.117 67.2866C157.735 66.1581 158.192 65.2445 158.488 64.5459C158.622 64.2503 158.81 64.0219 159.052 63.8607C159.321 63.6995 159.603 63.6189 159.898 63.6189C160.355 63.6189 160.718 63.7935 160.987 64.1428C161.282 64.4653 161.43 64.8146 161.43 65.1908C161.43 65.3788 161.39 65.5669 161.309 65.755C161.201 65.97 160.987 66.4133 160.664 67.0851C160.342 67.7568 159.912 68.536 159.374 69.4227C158.864 70.2826 158.259 71.2096 157.561 72.2038C156.862 73.1711 156.083 74.0578 155.223 74.8639C154.39 75.6699 153.476 76.3417 152.482 76.8791C151.515 77.4165 150.494 77.6852 149.419 77.6852C148.21 77.6852 147.229 77.4568 146.477 77C145.725 76.5163 145.133 75.8983 144.703 75.146C144.274 74.3668 143.978 73.5204 143.817 72.6068C143.682 71.6664 143.615 70.7259 143.615 69.7855C143.615 69.3824 143.629 68.9256 143.656 68.4151C143.709 67.9046 143.763 67.3672 143.817 66.8029C143.897 66.2387 143.951 65.6744 143.978 65.1101C144.032 64.5459 144.059 64.0085 144.059 63.498C144.059 62.6381 143.924 62.0604 143.656 61.7649C143.387 61.4424 143.145 61.2812 142.93 61.2812C142.5 61.2812 142.003 61.5365 141.439 62.047C140.901 62.5307 140.324 63.1755 139.706 63.9816C139.115 64.7877 138.497 65.7013 137.852 66.7223C137.234 67.7165 136.643 68.7107 136.078 69.7049C135.541 70.6991 135.03 71.6529 134.547 72.5665C134.09 73.4532 133.727 74.1921 133.459 74.7832C132.921 75.9118 132.384 76.6641 131.846 77.0403C131.309 77.4434 130.758 77.6449 130.194 77.6449C129.415 77.6449 128.783 77.4165 128.3 76.9597C127.843 76.476 127.614 75.8043 127.614 74.9445C127.614 74.7564 127.641 74.3936 127.695 73.8562C127.749 73.292 127.816 72.6337 127.896 71.8813C127.977 71.1021 128.058 70.2691 128.138 69.3824C128.219 68.4957 128.3 67.6225 128.38 66.7626C128.461 65.8759 128.528 65.0564 128.582 64.3041C128.635 63.5517 128.662 62.9203 128.662 62.4097C128.662 61.738 128.635 61.0931 128.582 60.4751C128.528 59.8571 128.42 59.4809 128.259 59.3466C128.017 59.4272 127.587 59.9377 126.969 60.8782C126.351 61.7917 125.559 63.4174 124.591 65.755C124.457 66.0506 124.256 66.279 123.987 66.4402C123.718 66.6014 123.436 66.682 123.141 66.682C122.684 66.682 122.321 66.5342 122.052 66.2387C121.784 65.9162 121.649 65.5535 121.649 65.1505C121.649 64.9624 121.69 64.7608 121.77 64.5459C122.979 61.6708 124.108 59.5616 125.156 58.2181C126.231 56.8477 127.292 56.1625 128.34 56.1625C128.958 56.1625 129.482 56.3237 129.912 56.6462C130.342 56.9418 130.677 57.3448 130.919 57.8553C131.188 58.3658 131.376 58.9301 131.484 59.5481C131.618 60.1661 131.685 60.7976 131.685 61.4424C131.685 61.9261 131.645 62.6784 131.564 63.6995C131.51 64.7205 131.43 65.8222 131.322 67.0045C131.215 68.1599 131.107 69.3153 131 70.4707C130.919 71.6261 130.839 72.5934 130.758 73.3726ZM163.042 62.0873C162.881 62.5172 162.679 63.0009 162.437 63.5383C162.223 64.0757 161.967 64.6399 161.672 65.2311C161.43 65.6878 161.175 66.0506 160.906 66.3193C160.664 66.5611 160.342 66.682 159.939 66.682C159.482 66.682 159.119 66.5477 158.85 66.279C158.582 65.9834 158.447 65.6475 158.447 65.2714C158.447 65.137 158.461 65.0295 158.488 64.9489C158.515 64.8415 158.582 64.6802 158.689 64.4653C159.388 63.1218 159.898 61.953 160.221 60.9588C160.57 59.9377 160.852 58.8764 161.067 57.7747C160.879 57.1567 160.745 56.6328 160.664 56.2028C160.583 55.7729 160.543 55.3296 160.543 54.8728C160.543 53.9861 160.731 53.274 161.107 52.7366C161.484 52.1724 162.008 51.8902 162.679 51.8902C163.297 51.8902 163.781 52.1589 164.13 52.6963C164.506 53.2337 164.695 53.892 164.695 54.6713C164.695 55.1012 164.654 55.5311 164.574 55.961C164.493 56.3909 164.386 56.9283 164.251 57.5732C164.869 59.1048 165.487 60.4617 166.105 61.644C166.723 62.8262 167.274 63.9144 167.758 64.9086C168.241 65.8759 168.631 66.7895 168.927 67.6493C169.249 68.5092 169.41 69.369 169.41 70.2288C169.41 71.3574 169.182 72.4321 168.725 73.4532C168.268 74.4742 167.516 75.3341 166.468 76.0327C166.602 76.0596 166.737 76.073 166.871 76.073C167.005 76.073 167.14 76.073 167.274 76.073C168.806 76.073 170.216 75.7237 171.506 75.0251C172.796 74.3265 173.951 73.4263 174.972 72.3247C176.02 71.1961 176.947 69.9601 177.753 68.6166C178.559 67.2463 179.258 65.8894 179.849 64.5459C180.118 63.9279 180.494 63.6189 180.978 63.6189C181.434 63.6189 181.784 63.7801 182.026 64.1025C182.294 64.425 182.429 64.7743 182.429 65.1505C182.429 65.3654 182.388 65.5669 182.308 65.755C182.012 66.4805 181.622 67.3135 181.139 68.2539C180.682 69.1675 180.118 70.1214 179.446 71.1155C178.801 72.0828 178.049 73.0367 177.189 73.9772C176.329 74.9176 175.362 75.764 174.287 76.5163C173.239 77.2418 172.084 77.8195 170.821 78.2494C169.558 78.7062 168.174 78.9346 166.669 78.9346C164.869 78.9346 163.19 78.6122 161.631 77.9673C160.1 77.3493 158.85 76.3148 157.883 74.8639C157.722 74.622 157.641 74.3668 157.641 74.0981C157.641 73.695 157.789 73.3457 158.085 73.0502C158.407 72.7277 158.77 72.5665 159.173 72.5665C159.603 72.5665 159.965 72.7143 160.261 73.0098C160.288 73.0636 160.382 73.1576 160.543 73.292C160.704 73.3995 160.892 73.5338 161.107 73.695C161.349 73.8294 161.618 73.9503 161.914 74.0578C162.236 74.1652 162.558 74.219 162.881 74.219C163.526 74.219 164.063 74.0846 164.493 73.8159C164.95 73.5472 165.313 73.2248 165.581 72.8486C165.85 72.4456 166.038 72.0291 166.146 71.5992C166.28 71.1424 166.347 70.7528 166.347 70.4304C166.347 69.7586 166.24 69.0869 166.025 68.4151C165.81 67.7434 165.528 67.0716 165.178 66.3999C164.856 65.7282 164.493 65.043 164.09 64.3444C163.714 63.6189 163.365 62.8665 163.042 62.0873ZM187.588 75.8312C187.588 76.4492 187.373 76.9597 186.943 77.3627C186.54 77.7927 186.029 78.0076 185.411 78.0076C184.793 78.0076 184.269 77.7927 183.839 77.3627C183.436 76.9597 183.235 76.4492 183.235 75.8312C183.235 75.24 183.436 74.7429 183.839 74.3399C184.269 73.91 184.793 73.695 185.411 73.695C186.029 73.695 186.54 73.91 186.943 74.3399C187.373 74.7429 187.588 75.24 187.588 75.8312Z" fill="white"/>
<circle cx="107.375" cy="45.375" r="3.875" fill="#BB0900"/>
<circle cx="186.773" cy="75.8497" r="3.86263" fill="#FF9E16"/>
</svg>
